<?xml version="1.0" encoding="UTF-8"?>
<svg version="1.1" xmlns="http://www.w3.org/2000/svg" width="1024" height="1024">
<path d="M0 0 C337.92 0 675.84 0 1024 0 C1024 337.92 1024 675.84 1024 1024 C686.08 1024 348.16 1024 0 1024 C0 686.08 0 348.16 0 0 Z " fill="#18122E" transform="translate(0,0)"/>
<path d="M0 0 C3.82498286 3.33330265 7.00761892 6.90892378 10 11 C10.556875 10.34773438 11.11375 9.69546875 11.6875 9.0234375 C20.87257101 -1.49595125 30.46754523 -9.19505014 44.91015625 -10.203125 C61.02729189 -10.44278501 73.96675414 -5.63895122 85.7109375 5.52734375 C95.990849 16.63175327 99.52763379 29.19303118 99.23828125 43.98046875 C99 47 99 47 98 49 C98.87785156 49.10054688 99.75570312 49.20109375 100.66015625 49.3046875 C109.966362 51.24211981 118.11782334 58.70186036 123.6171875 66.20703125 C130.42901561 76.69589095 132.97957206 87.59208726 132 100 C131.92910156 100.92554688 131.85820312 101.85109375 131.78515625 102.8046875 C130.18120531 115.23981278 122.8421971 126.5053646 113.18359375 134.26171875 C105.50250873 140 105.50250873 140 103 140 C103.495 141.175625 103.99 142.35125 104.5 143.5625 C108.14065658 154.65866384 106.52395865 166.43000317 102 177 C95.5605892 189.48736805 84.55194684 198.31443147 71.578125 203.3203125 C57.54775924 207.77885095 42.96537642 207.07556182 29.41015625 201.25390625 C22.10844317 197.45512197 15.78380958 191.69118061 11 185 C11 184.34 11 183.68 11 183 C10.34 183 9.68 183 9 183 C8.7421875 183.74378906 8.484375 184.48757813 8.21875 185.25390625 C4.26217249 194.16888699 -5.44944537 199.78528056 -14.15234375 203.2578125 C-28.0482813 207.81020441 -42.41779899 207.59461257 -56 202 C-69.00613703 195.30192421 -79.72810105 185.4078837 -84.9375 171.5 C-87.51665056 161.61325619 -87.24547168 149.65883405 -84 140 C-84.68964844 139.61070312 -85.37929687 139.22140625 -86.08984375 138.8203125 C-98.09773272 131.67158299 -107.01898285 121.81679787 -111.1328125 108.26953125 C-114.2908862 94.65664737 -112.89367431 80.61769929 -105.578125 68.6796875 C-104.15327119 66.66497485 -102.64598778 64.83700365 -101 63 C-100.48824219 62.39671875 -99.97648437 61.7934375 -99.44921875 61.171875 C-94.11578813 55.31655737 -86.84255175 50.57953033 -79 49 C-79.15984375 48.27941406 -79.3196875 47.55882812 -79.484375 46.81640625 C-81.63838803 35.050926 -79.24572591 23.35743374 -72.71875 13.375 C-64.39183642 1.86871942 -53.28789616 -6.74544701 -39.0859375 -9.58203125 C-24.77350017 -11.52055124 -11.6915367 -8.65050431 0 0 Z " fill="#F3F2F2" transform="translate(227,411)"/>
<path d="M0 0 C9.08056698 5.19234548 14.41107771 11.34179321 17.5625 21.4375 C18.80116762 28.60873361 17.26450203 35.20806882 13.5625 41.4375 C9.03741079 46.91019613 3.51383888 49.66511891 -3.01953125 52.19921875 C-5.75007116 53.59757279 -6.89426178 54.8084655 -8.4375 57.4375 C-8.8511558 60.74674642 -8.86999262 62.66489182 -7.23046875 65.59375 C-5.57588191 67.63049903 -5.57588191 67.63049903 -3.08984375 67.96875 C9.13591954 67.82802179 17.97688146 63.05192113 26.5625 54.5625 C27.2225 53.86125 27.8825 53.16 28.5625 52.4375 C37.22430174 56.9636464 43.53120317 62.25496026 48.5 70.75 C51.40199385 80.82162573 51.17469059 89.51600437 46.3046875 98.84765625 C42.92679608 104.37595396 38.95648026 107.93085445 33.5625 111.4375 C32.20125 112.4275 32.20125 112.4275 30.8125 113.4375 C30.07 113.7675 29.3275 114.0975 28.5625 114.4375 C25.35618054 113.1778745 22.80090988 111.18337143 20.0625 109.125 C12.85481749 104.03597158 4.62739922 99.28027882 -4.4375 100.4375 C-5.4275 100.7675 -6.4175 101.0975 -7.4375 101.4375 C-8.86422636 108.14214816 -8.86422636 108.14214816 -6.625 114.3125 C-3.91324421 116.12033719 -1.81649552 117.13368268 1.1875 118.25 C12.02797682 122.29495404 19.43096524 129.17443049 24.5625 139.4375 C25.56869834 150.01083006 23.59813956 157.04189978 16.875 165.1875 C9.32063853 173.20351689 0.51597604 176.28219549 -10.3125 176.8125 C-19.49309119 176.58441078 -27.81980873 172.70612623 -34.4375 166.4375 C-42.94499337 157.4562715 -45.04161266 146.92894534 -44.97094727 134.90454102 C-44.97956284 133.70301392 -44.98817841 132.50148682 -44.99705505 131.2635498 C-45.01573028 128.00089418 -45.01665768 124.73888757 -45.00773358 121.47620893 C-45.00258304 118.73792369 -45.00994888 115.99972725 -45.01720566 113.26145118 C-45.03414046 106.7945814 -45.03070416 100.32794795 -45.01391602 93.86108398 C-44.99699971 87.22106286 -45.01283637 80.58169945 -45.0451389 73.94175011 C-45.07194947 68.21055364 -45.07908015 62.47956046 -45.07062382 56.74830765 C-45.0657279 53.33856752 -45.0677265 49.92922261 -45.08841133 46.51953316 C-45.10594096 42.71249366 -45.09124176 38.9068388 -45.06860352 35.09985352 C-45.08029572 33.991436 -45.09198792 32.88301849 -45.10403442 31.74101257 C-44.9826425 21.64543614 -42.10603447 13.11815127 -35.4375 5.4375 C-33.2890625 3.70703125 -33.2890625 3.70703125 -31.0625 2.25 C-30.33289063 1.76144531 -29.60328125 1.27289063 -28.8515625 0.76953125 C-19.82587133 -4.21066404 -9.27786969 -4.37635363 0 0 Z " fill="#1A142E" transform="translate(290.4375,422.5625)"/>
<path d="M0 0 C5.94029263 4.49430035 10.21036208 11.55084017 11.51831245 18.8535347 C11.72266782 22.22180077 11.74607504 25.54239215 11.69750977 28.91650391 C11.7032048 30.18137131 11.70889984 31.44623871 11.71476746 32.74943542 C11.72917452 36.18567325 11.70652621 39.62072242 11.67590833 43.05681658 C11.64933711 46.67070443 11.65484354 50.2845634 11.6559906 53.89852905 C11.65319103 59.96250008 11.62727867 66.02601759 11.58618164 72.08984375 C11.53897313 79.08084419 11.52318943 86.07134938 11.5253883 93.06249774 C11.52742105 100.53740956 11.50656849 108.01213293 11.47904849 115.48698759 C11.47268303 117.62771171 11.4705289 119.76840503 11.46933174 121.90913773 C11.46573374 125.91052432 11.43650331 129.91133715 11.40454102 133.91259766 C11.40590057 135.08790543 11.40726013 136.2632132 11.40866089 137.47413635 C11.28834938 147.80553836 9.37582703 156.20710446 1.9921875 163.82421875 C-5.94231743 171.32246224 -14.15941818 174.17190802 -25.015625 174.0703125 C-35.86548762 173.04435399 -44.25958104 167.37293671 -51.1953125 159.28125 C-55.11048167 153.95828596 -57.90246666 147.57026441 -57.46875 140.84765625 C-55.60012479 132.03842314 -50.2667989 125.83700345 -43.03125 120.78515625 C-38.08898996 117.98369523 -32.9555142 115.66488621 -27.79296875 113.3046875 C-24.79617355 111.93259828 -24.79617355 111.93259828 -23.03125 108.78515625 C-22.80252898 105.00363536 -23.24882641 101.74813914 -25.65625 98.78515625 C-31.18801896 96.45599037 -35.2968818 97.67439493 -40.71875 99.72265625 C-47.62959446 102.74560465 -53.21080655 107.04830599 -59.03125 111.78515625 C-70.18375781 106.91575143 -76.42117408 101.15794686 -81.03125 89.78515625 C-83.11088955 83.18859259 -83.08221673 75.41972417 -80.40625 69.03515625 C-79.65565804 67.59630523 -78.86351825 66.17835764 -78.03125 64.78515625 C-77.63035156 64.09679687 -77.22945312 63.4084375 -76.81640625 62.69921875 C-72.87254142 56.73197979 -67.37770399 52.9733278 -61.03125 49.78515625 C-60.04125 49.78515625 -59.05125 49.78515625 -58.03125 49.78515625 C-56.48828125 51.359375 -56.48828125 51.359375 -54.84375 53.47265625 C-50.10140522 59.12545119 -44.33336965 63.21018927 -37.03125 64.78515625 C-33.34111859 65.07910697 -29.69914327 65.34253219 -26.03125 64.78515625 C-23.36056952 60.77913554 -23.10353805 57.4924354 -24.03125 52.78515625 C-26.1639878 50.71166117 -27.38676929 49.96537819 -30.03125 48.78515625 C-38.81054636 44.83927032 -44.6441779 41.55930045 -49.03125 32.78515625 C-49.8071938 23.29647201 -50.0830372 14.67510311 -44.03125 6.78515625 C-32.16352781 -6.62443536 -15.46805039 -9.25108398 0 0 Z " fill="#1A142E" transform="translate(215.03125,425.21484375)"/>
<path d="M0 0 C6.6 0 13.2 0 20 0 C20 35.31 20 70.62 20 107 C13.4 107 6.8 107 0 107 C-0.495 103.535 -0.495 103.535 -1 100 C-1.46148438 100.39832031 -1.92296875 100.79664063 -2.3984375 101.20703125 C-9.6058617 107.06128292 -17.16264858 109.68398759 -26.4921875 109.34765625 C-35.11256607 108.15261935 -43.21904984 103.6211613 -48.72265625 96.89453125 C-57.63271359 84.17526021 -58.84017725 68.8922175 -56.3125 53.75 C-53.86114191 43.19699034 -48.39441381 35.04787252 -39.28125 29.29296875 C-31.90076857 25.10985342 -23.14936138 24.76281577 -14.9921875 26.72265625 C-8.9680088 28.74986625 -6.16094034 30.69921638 -1 35 C-0.67 23.45 -0.34 11.9 0 0 Z " fill="#F3F2F2" transform="translate(739,449)"/>
<path d="M0 0 C8.58 0 17.16 0 26 0 C33.40622328 20.42684164 40.44487629 40.96408468 47.40185547 61.54760742 C47.95699326 63.18911522 47.95699326 63.18911522 48.52334595 64.86378479 C49.25809655 67.03647801 49.99229599 69.2093577 50.72592163 71.38243103 C52.56471805 76.81613455 54.42815541 82.2396576 56.33496094 87.64990234 C56.70797333 88.70996994 57.08098572 89.77003754 57.46530151 90.86222839 C58.17504255 92.87341981 58.88881341 94.88319509 59.60720825 96.89131165 C59.9222934 97.78400253 60.23737854 98.67669342 60.56201172 99.59643555 C60.84068085 100.37762253 61.11934998 101.15880951 61.40646362 101.96366882 C62 104 62 104 62 107 C54.74 107 47.48 107 40 107 C38.82805703 103.39747124 37.6622464 99.79315629 36.5 96.1875 C36.16613281 95.16333984 35.83226562 94.13917969 35.48828125 93.08398438 C35.17246094 92.10107422 34.85664062 91.11816406 34.53125 90.10546875 C34.23798828 89.19949951 33.94472656 88.29353027 33.64257812 87.36010742 C33 85 33 85 33 82 C19.8 82 6.6 82 -7 82 C-7.33 84.31 -7.66 86.62 -8 89 C-8.42193647 90.55423345 -8.88755151 92.09775653 -9.41015625 93.62109375 C-9.6512915 94.33450928 -9.89242676 95.0479248 -10.14086914 95.78295898 C-10.44500732 96.65895752 -10.74914551 97.53495605 -11.0625 98.4375 C-12.031875 101.263125 -13.00125 104.08875 -14 107 C-21.26 107 -28.52 107 -36 107 C-33.32130856 96.421604 -29.73722786 86.18438817 -26.1875 75.875 C-25.52270143 73.93639215 -24.85823727 71.99766959 -24.1940918 70.05883789 C-22.82062472 66.05028152 -21.44548867 62.04230307 -20.06933594 58.03466797 C-18.05065779 52.15233043 -16.04330921 46.26617414 -14.0390625 40.37890625 C-13.40601908 38.52034055 -12.77296266 36.66177928 -12.13989258 34.80322266 C-11.23599012 32.14943744 -10.33226434 29.49559313 -9.42929077 26.8414917 C-8.59587242 24.39265448 -7.76099041 21.94432067 -6.92578125 19.49609375 C-6.68779816 18.79569473 -6.44981506 18.09529572 -6.20462036 17.37367249 C-4.21551299 11.5498226 -2.10457669 5.7875859 0 0 Z " fill="#F3F2F2" transform="translate(830,449)"/>
<path d="M0 0 C4.43120333 3.62971749 6.68988131 7.75714392 8.5 13.1875 C8.58888831 15.16592761 8.61760873 17.14726634 8.61352539 19.12768555 C8.61341209 20.95924446 8.61341209 20.95924446 8.61329651 22.82780457 C8.60813522 24.14662125 8.60297394 25.46543793 8.59765625 26.82421875 C8.5957908 28.18756559 8.5943675 29.55091311 8.59336853 30.91426086 C8.58955332 34.49978491 8.57973155 38.08526835 8.56866455 41.67077637 C8.55842901 45.3306422 8.55386632 48.9905146 8.54882812 52.65039062 C8.53810838 59.82944773 8.52051965 67.008463 8.5 74.1875 C2.23 74.1875 -4.04 74.1875 -10.5 74.1875 C-10.995 70.7225 -10.995 70.7225 -11.5 67.1875 C-11.97308594 67.58582031 -12.44617188 67.98414063 -12.93359375 68.39453125 C-21.16284721 74.98755888 -28.95234108 77.28494428 -39.5 76.1875 C-46.0176399 74.9420911 -51.14577705 72.24292249 -55.5 67.1875 C-59.91562496 60.22181807 -61.3645057 53.38795404 -60.5 45.1875 C-58.66855362 38.92086418 -54.85209379 34.75082214 -49.5 31.1875 C-42.23922629 27.47425422 -35.10671333 26.36259248 -27.0625 25.625 C-24.93764584 25.42742808 -22.81382405 25.21831555 -20.69140625 24.99609375 C-19.76529541 24.91157959 -18.83918457 24.82706543 -17.88500977 24.73999023 C-15.14121141 24.10438621 -14.11202092 23.48275712 -12.5 21.1875 C-12.56752632 17.40602634 -12.6286714 15.08887442 -15.3125 12.3125 C-19.85922867 9.9741824 -24.41829434 9.6318463 -29.5 10.1875 C-32.41080119 11.21627392 -32.41080119 11.21627392 -34.5 13.1875 C-35.49 15.6625 -35.49 15.6625 -36.5 18.1875 C-43.1 18.1875 -49.7 18.1875 -56.5 18.1875 C-55.44971621 9.78522971 -54.07446719 5.76196719 -48.25 -0.0625 C-33.58157304 -9.39695352 -14.59734852 -10.00884375 0 0 Z " fill="#F3F2F3" transform="translate(661.5,481.8125)"/>
<path d="M0 0 C5.06689006 4.44881588 8.0386381 9.91567942 8.93325806 16.62359619 C9.07590187 20.3245601 9.0627807 23.9923775 8.98828125 27.6953125 C8.97893302 29.04864177 8.97182643 30.40198819 8.96684265 31.75534058 C8.94792991 35.28369485 8.89897167 38.81098772 8.84332275 42.33892822 C8.79178528 45.95236866 8.76925579 49.56598392 8.74414062 53.1796875 C8.69083196 60.24526245 8.60303067 67.30994937 8.5 74.375 C2.23 74.375 -4.04 74.375 -10.5 74.375 C-10.995 70.91 -10.995 70.91 -11.5 67.375 C-11.97308594 67.77332031 -12.44617188 68.17164063 -12.93359375 68.58203125 C-21.17021651 75.18096294 -28.94614269 77.45940502 -39.5 76.375 C-46.58217036 75.10501468 -51.80771135 71.8087338 -56.5 66.375 C-60.89542008 59.92425672 -61.50895547 52.99937481 -60.5 45.375 C-58.73982068 39.15708843 -54.90600917 34.79575157 -49.5 31.375 C-42.14674914 27.46013439 -34.39608336 26.69608922 -26.22558594 26.05761719 C-21.68881455 25.69310527 -17.78684638 25.04555849 -13.5 23.375 C-12.55728998 20.11860341 -12.55728998 20.11860341 -12.5 16.375 C-14.56946822 13.65512748 -16.22156456 11.92898869 -19.375 10.5625 C-26.73534527 9.88915032 -26.73534527 9.88915032 -33.5 12.375 C-34.49 14.355 -35.48 16.335 -36.5 18.375 C-43.1 18.375 -49.7 18.375 -56.5 18.375 C-55.4797726 11.02936271 -54.17988313 5.43703325 -48.5 0.375 C-33.51806033 -8.81846298 -15.1491013 -9.96725918 0 0 Z " fill="#F3F3F3" transform="translate(581.5,481.625)"/>
<path d="M0 0 C6.6 0 13.2 0 20 0 C20 29.04 20 58.08 20 88 C34.52 88 49.04 88 64 88 C64 94.27 64 100.54 64 107 C42.88 107 21.76 107 0 107 C0 71.69 0 36.38 0 0 Z " fill="#F4F4F4" transform="translate(413,449)"/>
<path d="M0 0 C6.6 0 13.2 0 20 0 C20 35.31 20 70.62 20 107 C13.4 107 6.8 107 0 107 C0 71.69 0 36.38 0 0 Z " fill="#F4F3F4" transform="translate(903,449)"/>
<path d="M0 0 C6.6 0 13.2 0 20 0 C20 35.31 20 70.62 20 107 C13.4 107 6.8 107 0 107 C0 71.69 0 36.38 0 0 Z " fill="#F3F2F2" transform="translate(489,449)"/>
<path d="M0 0 C6.28348404 4.28419366 9.33120844 9.49508423 10.75 16.875 C11.6269962 26.57001276 11.03768054 35.14834779 4.75 42.875 C2.18341853 45.76240415 0.22309536 46.73191271 -3.703125 47.11328125 C-10.20842976 47.28590805 -14.01410689 46.82863357 -19.25 42.875 C-24.85382819 37.4268337 -26.41204446 30.47364076 -26.625 22.875 C-26.37686131 14.39513008 -24.37141827 7.85405971 -18.25 1.875 C-12.46090076 -2.07211312 -6.4927354 -2.24748533 0 0 Z " fill="#18122D" transform="translate(728.25,493.125)"/>
<path d="M0 0 C1.65779872 2.48669808 2.46092783 4.04375525 3.32861328 6.79711914 C3.56871124 7.55122574 3.8088092 8.30533234 4.05618286 9.08229065 C4.30834564 9.8917363 4.56050842 10.70118195 4.8203125 11.53515625 C5.21559647 12.78684853 5.21559647 12.78684853 5.61886597 14.06382751 C6.17414069 15.82576841 6.72707404 17.58844866 7.27783203 19.35180664 C8.12339778 22.05737337 8.9771212 24.76026382 9.83203125 27.46289062 C10.37027639 29.1743268 10.90805291 30.88591043 11.4453125 32.59765625 C11.70152374 33.40912613 11.95773499 34.22059601 12.22171021 35.05665588 C14 40.76859318 14 40.76859318 14 43 C4.76 43 -4.48 43 -14 43 C-12.16980266 37.03594942 -10.33774493 31.07254069 -8.50073242 25.1105957 C-7.87590239 23.0806704 -7.25220189 21.05039706 -6.62963867 19.01977539 C-5.73650481 16.10732058 -4.83936546 13.19612639 -3.94140625 10.28515625 C-3.6622084 9.3716188 -3.38301056 8.45808136 -3.09535217 7.51686096 C-2.83515793 6.67606491 -2.57496368 5.83526886 -2.30688477 4.96899414 C-2.07816177 4.22508926 -1.84943878 3.48118439 -1.61378479 2.71473694 C-1 1 -1 1 0 0 Z " fill="#18132B" transform="translate(843,470)"/>
<path d="M0 0 C0.61619487 11.5365372 0.61619487 11.5365372 -1.5 16.5625 C-5.93853358 20.89007024 -10.37380424 23.18375064 -16.625 23.5 C-20.98789202 23.30374534 -23.64842981 21.84883466 -27 19 C-28.12992055 16.74015891 -28.29799956 15.20273513 -28.4375 12.6875 C-28.49808594 11.92824219 -28.55867187 11.16898438 -28.62109375 10.38671875 C-27.83855222 7.37959374 -26.33703718 5.92440566 -23.8918457 4.06420898 C-20.42618382 2.11469032 -16.77415817 1.68682123 -12.875 1.1875 C-12.07707031 1.06697266 -11.27914062 0.94644531 -10.45703125 0.82226562 C-6.89912155 0.30253758 -3.6123816 0 0 0 Z " fill="#18122B" transform="translate(570,520)"/>
<path d="M0 0 C0.61619487 11.5365372 0.61619487 11.5365372 -1.5 16.5625 C-5.93853358 20.89007024 -10.37380424 23.18375064 -16.625 23.5 C-20.98789202 23.30374534 -23.64842981 21.84883466 -27 19 C-28.734118 15.53176399 -28.60029624 11.78388979 -28 8 C-23.42661022 2.9039371 -17.50045667 1.75941983 -10.9375 0.875 C-9.72964844 0.70742188 -8.52179687 0.53984375 -7.27734375 0.3671875 C-4 0 -4 0 0 0 Z " fill="#17122B" transform="translate(650,520)"/>
<path d="M0 0 C4.29 0 8.58 0 13 0 C13 0.33 13 0.66 13 1 C11.72125 1.144375 10.4425 1.28875 9.125 1.4375 C6.74307106 1.70642746 5.15547309 1.92226346 3 3 C2.67 14.22 2.34 25.44 2 37 C0.02 37.495 0.02 37.495 -2 38 C-2 37.34 -2 36.68 -2 36 C-1.34 36 -0.68 36 0 36 C0 24.12 0 12.24 0 0 Z " fill="#FBFBFB" transform="translate(739,449)"/>
<path d="M0 0 C0.33 0 0.66 0 1 0 C1 12.21 1 24.42 1 37 C-0.65 35.35 -2.3 33.7 -4 32 C-3.34 32 -2.68 32 -2 32 C-1.97494385 31.06615479 -1.9498877 30.13230957 -1.92407227 29.17016602 C-1.82913072 25.71674811 -1.72988742 22.2635104 -1.62768555 18.81030273 C-1.58428187 17.31360731 -1.54261087 15.81686061 -1.50268555 14.32006836 C-1.44511384 12.17285688 -1.38138284 10.02590479 -1.31640625 7.87890625 C-1.27974854 6.5854126 -1.24309082 5.29191895 -1.20532227 3.95922852 C-1 1 -1 1 0 0 Z " fill="#040215" transform="translate(738,448)"/>
<path d="M0 0 C1.16144531 0.00902344 2.32289063 0.01804687 3.51953125 0.02734375 C4.39996094 0.03894531 5.28039062 0.05054688 6.1875 0.0625 C6.5175 1.0525 6.8475 2.0425 7.1875 3.0625 C0.9175 3.0625 -5.3525 3.0625 -11.8125 3.0625 C-11.8125 2.4025 -11.8125 1.7425 -11.8125 1.0625 C-7.81454108 0.10630267 -4.10446078 -0.0414592 0 0 Z " fill="#EBEBED" transform="translate(275.8125,400.9375)"/>
<path d="M0 0 C0.68964844 -0.01224609 1.37929688 -0.02449219 2.08984375 -0.03710938 C3.89477494 -0.04238695 5.69917842 0.06565542 7.5 0.1875 C8.16 0.8475 8.82 1.5075 9.5 2.1875 C4.15703984 3.61228938 -2.65083939 4.43611692 -7.80859375 2.17578125 C-8.36675781 1.84964844 -8.92492187 1.52351562 -9.5 1.1875 C-6.46576019 -0.3296199 -3.32495206 0.00310743 0 0 Z " fill="#E2E1E5" transform="translate(715.5,554.8125)"/>
<path d="M0 0 C0.33 0 0.66 0 1 0 C0.63619403 6.30597015 0.63619403 6.30597015 -2.0625 9.25 C-5.62303277 11.37116846 -9.07570077 12.66972908 -13 14 C-12.67 13.01 -12.34 12.02 -12 11 C-11.34 11 -10.68 11 -10 11 C-9.67 10.01 -9.34 9.02 -9 8 C-8.236875 8.0825 -7.47375 8.165 -6.6875 8.25 C-3.90738652 8.27988713 -3.90738652 8.27988713 -2.25 6.25 C-1.07005648 4.12610167 -0.42503038 2.38017011 0 0 Z " fill="#DDDBE1" transform="translate(192,529)"/>
<path d="M0 0 C4.29 0 8.58 0 13 0 C13 0.99 13 1.98 13 3 C8.71 3 4.42 3 0 3 C0 2.01 0 1.02 0 0 Z " fill="#EDEDEE" transform="translate(191,401)"/>
<path d="M0 0 C1.48828125 0.98828125 1.48828125 0.98828125 3 3 C3.21714241 5.81127043 3.28284276 8.3883345 3.1875 11.1875 C3.16719727 12.31188477 3.16719727 12.31188477 3.14648438 13.45898438 C3.11118539 15.30629767 3.05737917 17.15324066 3 19 C0.43238452 16.38521048 0.0043655 15.05471424 -0.29296875 11.328125 C-0.27316751 9.96843965 -0.23759202 8.6089066 -0.1875 7.25 C-0.17396484 6.55261719 -0.16042969 5.85523438 -0.14648438 5.13671875 C-0.1112945 3.42414459 -0.05749155 1.71197059 0 0 Z " fill="#2A243B" transform="translate(112,498)"/>
<path d="M0 0 C0.66 0.33 1.32 0.66 2 1 C2 5.29 2 9.58 2 14 C-0.25161981 11.74838019 -0.92279772 10.16711677 -1.1328125 6.9921875 C-1.11111111 1.11111111 -1.11111111 1.11111111 0 0 Z " fill="#231F30" transform="translate(159,563)"/>
<path d="M0 0 C0.99 0.33 1.98 0.66 3 1 C3.33 3.64 3.66 6.28 4 9 C4.66 9 5.32 9 6 9 C6 11.64 6 14.28 6 17 C3 15 3 15 2.3046875 12.79296875 C2.09199219 11.50326172 2.09199219 11.50326172 1.875 10.1875 C1.65457031 8.90939453 1.65457031 8.90939453 1.4296875 7.60546875 C1.28789062 6.74566406 1.14609375 5.88585937 1 5 C0.67243564 3.33218992 0.34080375 1.66515516 0 0 Z " fill="#EAE9EC" transform="translate(312,555)"/>
<path d="M0 0 C2.31 0.33 4.62 0.66 7 1 C7 1.66 7 2.32 7 3 C7.61875 3.598125 8.2375 4.19625 8.875 4.8125 C11.121484 7.12505706 11.9906634 8.97199019 13 12 C12.34 12 11.68 12 11 12 C9.66666667 10 8.33333333 8 7 6 C4.59097812 3.88298077 3.06867617 3.02289206 0 2 C0 1.34 0 0.68 0 0 Z " fill="#EBEAEC" transform="translate(725,491)"/>
<path d="M0 0 C0.66 0 1.32 0 2 0 C2.83764268 1.95649397 3.66999059 3.91525556 4.5 5.875 C5.19609375 7.51082031 5.19609375 7.51082031 5.90625 9.1796875 C7 12 7 12 7 14 C6.34 14 5.68 14 5 14 C5 13.01 5 12.02 5 11 C4.34 11 3.68 11 3 11 C2.01 7.37 1.02 3.74 0 0 Z " fill="#EAE9EC" transform="translate(318,426)"/>
<path d="M0 0 C0.99 0 1.98 0 3 0 C3 3.96 3 7.92 3 12 C2.34 11.67 1.68 11.34 1 11 C0.5859375 8.49609375 0.5859375 8.49609375 0.375 5.4375 C0.30023437 4.42558594 0.22546875 3.41367187 0.1484375 2.37109375 C0.09945312 1.58863281 0.05046875 0.80617188 0 0 Z " fill="#EDECEF" transform="translate(587,495)"/>
<path d="M0 0 C2.23551759 3.35327639 2.17283528 3.90743657 1.625 7.6875 C1.51414062 8.49574219 1.40328125 9.30398438 1.2890625 10.13671875 C1.19367188 10.75160156 1.09828125 11.36648438 1 12 C-1 10 -1 10 -1.23046875 7.87109375 C-1.20919922 6.66646484 -1.20919922 6.66646484 -1.1875 5.4375 C-1.18105469 4.63183594 -1.17460937 3.82617188 -1.16796875 2.99609375 C-1 1 -1 1 0 0 Z " fill="#242130" transform="translate(339,500)"/>
<path d="M0 0 C2 2 2 2 2.1953125 4.1640625 C2.16050781 5.38222656 2.16050781 5.38222656 2.125 6.625 C2.10695313 7.44226563 2.08890625 8.25953125 2.0703125 9.1015625 C2.04710937 9.72804688 2.02390625 10.35453125 2 11 C1.01 11.33 0.02 11.66 -1 12 C-0.67 8.04 -0.34 4.08 0 0 Z " fill="#E9E8EB" transform="translate(683,501)"/>
<path d="M0 0 C2.64 0 5.28 0 8 0 C8.33 0.99 8.66 1.98 9 3 C6.03 3 3.06 3 0 3 C0 2.01 0 1.02 0 0 Z " fill="#201B31" transform="translate(632,491)"/>
<path d="M0 0 C2.97 0 5.94 0 9 0 C9 0.99 9 1.98 9 3 C6.03 3 3.06 3 0 3 C0 2.01 0 1.02 0 0 Z " fill="#1E1933" transform="translate(549,540)"/>
<path d="M0 0 C0.66 0.33 1.32 0.66 2 1 C1.0919838 2.13199353 0.17316174 3.25532363 -0.75 4.375 C-1.26046875 5.00148438 -1.7709375 5.62796875 -2.296875 6.2734375 C-4.08199481 8.08312318 -5.67949644 9.00117455 -8 10 C-6.34908222 5.70761377 -3.26245434 3.1206085 0 0 Z " fill="#E5E4E8" transform="translate(316,475)"/>
<path d="M0 0 C0 4.0790169 -1.48741752 5.85927189 -4 9 C-5.32 9 -6.64 9 -8 9 C-8 8.34 -8 7.68 -8 7 C-6.25 5.2734375 -6.25 5.2734375 -4 3.375 C-3.2575 2.74335937 -2.515 2.11171875 -1.75 1.4609375 C-1.1725 0.97882812 -0.595 0.49671875 0 0 Z " fill="#E3E2E4" transform="translate(219,586)"/>
<path d="M0 0 C0 0.66 0 1.32 0 2 C-1.32 2.33 -2.64 2.66 -4 3 C-3.34 5.31 -2.68 7.62 -2 10 C-2.66 9.67 -3.32 9.34 -4 9 C-4 8.34 -4 7.68 -4 7 C-4.66 7 -5.32 7 -6 7 C-5.6875 4.625 -5.6875 4.625 -5 2 C-2 0 -2 0 0 0 Z " fill="#ECEBEC" transform="translate(334,548)"/>
<path d="M0 0 C2.31 0 4.62 0 7 0 C7.33 0.99 7.66 1.98 8 3 C5.03 3 2.06 3 -1 3 C-0.67 2.01 -0.34 1.02 0 0 Z " fill="#1F1B34" transform="translate(630,540)"/>
<path d="M0 0 C0.33 0 0.66 0 1 0 C1.33 3.3 1.66 6.6 2 10 C1.01 10.33 0.02 10.66 -1 11 C-0.67 7.37 -0.34 3.74 0 0 Z " fill="#211F2E" transform="translate(681,517)"/>
<path d="M0 0 C1.65 1.65 3.3 3.3 5 5 C4.34 5.66 3.68 6.32 3 7 C1.68 6.01 0.36 5.02 -1 4 C-0.67 2.68 -0.34 1.36 0 0 Z " fill="#E8E8EB" transform="translate(163,583)"/>
<path d="M0 0 C0 0.99 0 1.98 0 3 C-3.3 2.67 -6.6 2.34 -10 2 C-10 1.67 -10 1.34 -10 1 C-2.25 0 -2.25 0 0 0 Z " fill="#E5E4E8" transform="translate(729,539)"/>
</svg>
